# 3ds Max Wavefront OBJ Exporter v0.97b - (c)2007 guruware
# File Created: 26.06.2014 17:18:07

mtllib pump_bottom.mtl

#
# object Drill
#

v  9.8425 10.0022 9.8425
v  -9.8425 10.0022 9.8425
v  0.0000 -14.7079 -0.0000
v  9.8425 10.0022 -9.8425
v  -9.8425 10.0022 -9.8425
# 5 vertices

vn 0.0000 -0.3700 0.9290
vn 0.9290 -0.3700 -0.0000
vn 0.0000 -0.3700 -0.9290
vn -0.9290 -0.3700 -0.0000
# 4 vertex normals

vt 0.7392 0.5062 0.0000
vt 0.4453 0.5674 0.0000
vt 0.5096 0.1398 0.0000
vt 0.9224 0.2685 0.0000
vt 0.1824 0.4225 0.0000
vt 0.0771 0.1415 0.0000
# 6 texture coords

g Drill
usemtl wire_087225198
s 4
f 1/1/1 2/2/1 3/3/1 
s 2
f 4/4/2 1/1/2 3/3/2 
s 16
f 5/5/3 4/6/3 3/3/3 
s 32
f 2/2/4 5/5/4 3/3/4 
# 4 faces

#
# object Cap
#

v  -1.2303 -15.1646 1.2402
v  -1.2303 -15.1646 -1.2402
v  1.2303 -15.1646 -1.2402
v  1.2303 -15.1646 1.2402
v  -1.2303 -12.6843 1.2402
v  1.2303 -12.6843 1.2402
v  1.2303 -12.6843 -1.2402
v  -1.2303 -12.6843 -1.2402
# 8 vertices

vn 0.0000 -1.0000 -0.0000
vn 0.0000 1.0000 -0.0000
vn 0.0000 0.0000 1.0000
vn 1.0000 0.0000 -0.0000
vn 0.0000 0.0000 -1.0000
vn -1.0000 0.0000 -0.0000
# 6 vertex normals

vt 0.8176 0.8405 0.0000
vt 0.8176 0.7984 0.0000
vt 0.8593 0.7984 0.0000
vt 0.8593 0.8405 0.0000
vt 0.7755 0.8405 0.0000
vt 0.7337 0.8405 0.0000
vt 0.7337 0.7984 0.0000
vt 0.7755 0.7984 0.0000
vt 0.8593 0.8826 0.0000
vt 0.8176 0.8826 0.0000
vt 0.9014 0.7984 0.0000
vt 0.9014 0.8405 0.0000
vt 0.8176 0.7563 0.0000
vt 0.8593 0.7563 0.0000
# 14 texture coords

g Cap
usemtl wire_148177027
s 2
f 6/7/5 7/8/5 8/9/5 
f 8/9/5 9/10/5 6/7/5 
s 4
f 10/11/6 11/12/6 12/13/6 
f 12/13/6 13/14/6 10/11/6 
s 8
f 6/7/7 9/10/7 11/15/7 
f 11/15/7 10/16/7 6/7/7 
s 16
f 9/10/8 8/9/8 12/17/8 
f 12/17/8 11/18/8 9/10/8 
s 32
f 8/9/9 7/8/9 13/19/9 
f 13/19/9 12/20/9 8/9/9 
s 64
f 7/8/10 6/7/10 10/11/10 
f 10/11/10 13/14/10 7/8/10 
# 12 faces

#
# object Ring1
#

v  -5.5709 -6.7799 5.5709
v  -5.5709 -6.7799 -5.5709
v  5.5709 -6.7799 -5.5709
v  5.5709 -6.7799 5.5709
v  -5.5709 -5.5594 5.5709
v  5.5709 -5.5594 5.5709
v  5.5709 -5.5594 -5.5709
v  -5.5709 -5.5594 -5.5709
# 8 vertices

vn 0.0000 -1.0000 -0.0000
vn 0.0000 1.0000 -0.0000
vn 0.0000 0.0000 1.0000
vn 1.0000 0.0000 -0.0000
vn 0.0000 0.0000 -1.0000
vn -1.0000 0.0000 -0.0000
# 6 vertex normals

vt 0.3629 0.9281 0.0000
vt 0.3629 0.7252 0.0000
vt 0.5658 0.7252 0.0000
vt 0.5658 0.9281 0.0000
vt 0.3461 0.9281 0.0000
vt 0.1432 0.9281 0.0000
vt 0.1432 0.7252 0.0000
vt 0.3461 0.7252 0.0000
vt 0.5658 0.9449 0.0000
vt 0.3629 0.9449 0.0000
vt 0.5826 0.7252 0.0000
vt 0.5826 0.9281 0.0000
vt 0.3629 0.7084 0.0000
vt 0.5658 0.7084 0.0000
# 14 texture coords

g Ring1
usemtl wire_177028149
s 2
f 14/21/11 15/22/11 16/23/11 
f 16/23/11 17/24/11 14/21/11 
s 4
f 18/25/12 19/26/12 20/27/12 
f 20/27/12 21/28/12 18/25/12 
s 8
f 14/21/13 17/24/13 19/29/13 
f 19/29/13 18/30/13 14/21/13 
s 16
f 17/24/14 16/23/14 20/31/14 
f 20/31/14 19/32/14 17/24/14 
s 32
f 16/23/15 15/22/15 21/33/15 
f 21/33/15 20/34/15 16/23/15 
s 64
f 15/22/16 14/21/16 18/25/16 
f 18/25/16 21/28/16 15/22/16 
# 12 faces

#
# object Ring2
#

v  -7.3622 -2.1523 7.3622
v  -7.3622 -2.1523 -7.3622
v  7.3622 -2.1523 -7.3622
v  7.3622 -2.1523 7.3622
v  -7.3622 -0.9318 7.3622
v  7.3622 -0.9318 7.3622
v  7.3622 -0.9318 -7.3622
v  -7.3622 -0.9318 -7.3622
# 8 vertices

vn 0.0000 -1.0000 -0.0000
vn 0.0000 1.0000 -0.0000
vn 0.0000 0.0000 1.0000
vn 1.0000 0.0000 -0.0000
vn 0.0000 0.0000 -1.0000
vn -1.0000 0.0000 -0.0000
# 6 vertex normals

vt 0.3629 0.9281 0.0000
vt 0.3629 0.7252 0.0000
vt 0.5658 0.7252 0.0000
vt 0.5658 0.9281 0.0000
vt 0.3461 0.9281 0.0000
vt 0.1432 0.9281 0.0000
vt 0.1432 0.7252 0.0000
vt 0.3461 0.7252 0.0000
vt 0.5658 0.9449 0.0000
vt 0.3629 0.9449 0.0000
vt 0.5826 0.7252 0.0000
vt 0.5826 0.9281 0.0000
vt 0.3629 0.7084 0.0000
vt 0.5658 0.7084 0.0000
# 14 texture coords

g Ring2
usemtl wire_177028149
s 2
f 22/35/17 23/36/17 24/37/17 
f 24/37/17 25/38/17 22/35/17 
s 4
f 26/39/18 27/40/18 28/41/18 
f 28/41/18 29/42/18 26/39/18 
s 8
f 22/35/19 25/38/19 27/43/19 
f 27/43/19 26/44/19 22/35/19 
s 16
f 25/38/20 24/37/20 28/45/20 
f 28/45/20 27/46/20 25/38/20 
s 32
f 24/37/21 23/36/21 29/47/21 
f 29/47/21 28/48/21 24/37/21 
s 64
f 23/36/22 22/35/22 26/39/22 
f 26/39/22 29/42/22 23/36/22 
# 12 faces

#
# object Ring3
#

v  -9.2323 2.4754 9.2323
v  -9.2323 2.4754 -9.2323
v  9.2323 2.4754 -9.2323
v  9.2323 2.4754 9.2323
v  -9.2323 3.6958 9.2323
v  9.2323 3.6958 9.2323
v  9.2323 3.6958 -9.2323
v  -9.2323 3.6958 -9.2323
# 8 vertices

vn 0.0000 -1.0000 -0.0000
vn 0.0000 1.0000 -0.0000
vn 0.0000 0.0000 1.0000
vn 1.0000 0.0000 -0.0000
vn 0.0000 0.0000 -1.0000
vn -1.0000 0.0000 -0.0000
# 6 vertex normals

vt 0.3629 0.9281 0.0000
vt 0.3629 0.7252 0.0000
vt 0.5658 0.7252 0.0000
vt 0.5658 0.9281 0.0000
vt 0.3461 0.9281 0.0000
vt 0.1432 0.9281 0.0000
vt 0.1432 0.7252 0.0000
vt 0.3461 0.7252 0.0000
vt 0.5658 0.9449 0.0000
vt 0.3629 0.9449 0.0000
vt 0.5826 0.7252 0.0000
vt 0.5826 0.9281 0.0000
vt 0.3629 0.7084 0.0000
vt 0.5658 0.7084 0.0000
# 14 texture coords

g Ring3
usemtl wire_177028149
s 2
f 30/49/23 31/50/23 32/51/23 
f 32/51/23 33/52/23 30/49/23 
s 4
f 34/53/24 35/54/24 36/55/24 
f 36/55/24 37/56/24 34/53/24 
s 8
f 30/49/25 33/52/25 35/57/25 
f 35/57/25 34/58/25 30/49/25 
s 16
f 33/52/26 32/51/26 36/59/26 
f 36/59/26 35/60/26 33/52/26 
s 32
f 32/51/27 31/50/27 37/61/27 
f 37/61/27 36/62/27 32/51/27 
s 64
f 31/50/28 30/49/28 34/53/28 
f 34/53/28 37/56/28 31/50/28 
# 12 faces

