# 3ds Max Wavefront OBJ Exporter v0.97b - (c)2007 guruware
# File Created: 01.02.2014 00:19:53

mtllib trashPillar.mtl

#
# object TrashPillar
#

v  -19.6850 0.0000 19.6850
v  -19.6850 0.0000 -19.6850
v  19.6850 0.0000 -19.6850
v  19.6850 0.0000 19.6850
v  -19.6850 4.9213 19.6850
v  19.6850 4.9213 19.6850
v  19.6850 4.9213 -19.6850
v  -19.6850 4.9213 -19.6850
v  -17.2244 4.9213 17.2244
v  -17.2244 4.9213 -17.2244
v  17.2244 4.9213 -17.2244
v  17.2244 4.9213 17.2244
v  -17.2244 7.4016 17.2244
v  17.2244 7.4016 17.2244
v  17.2244 7.4016 -17.2244
v  -17.2244 7.4016 -17.2244
v  -12.6481 7.4016 12.6481
v  -12.6481 7.4016 -12.6481
v  12.6481 7.4016 -12.6481
v  12.6481 7.4016 12.6481
v  -9.6783 10.0551 8.7739
v  9.6783 10.0551 8.7739
v  9.6783 10.0551 -8.7739
v  -9.6783 10.0551 -8.7739
v  14.4422 32.0079 14.4422
v  -14.4422 32.0079 14.4422
v  14.4422 32.0079 -14.4422
v  -14.4422 32.0079 -14.4422
v  -17.2261 32.0079 17.2261
v  17.2261 32.0079 17.2261
v  17.2261 36.9095 17.2261
v  -17.2261 36.9095 17.2261
v  17.2261 32.0079 -17.2261
v  17.2261 36.9095 -17.2261
v  -17.2261 32.0079 -17.2261
v  -17.2261 36.9095 -17.2261
v  12.0757 36.9095 12.0757
v  -12.0757 36.9095 12.0757
v  -12.0757 36.9095 -12.0757
v  12.0757 36.9095 -12.0757
# 40 vertices

vn 0.0000 -1.0000 -0.0000
vn 0.0000 1.0000 -0.0000
vn 0.0000 0.0000 1.0000
vn 1.0000 0.0000 -0.0000
vn 0.0000 0.0000 -1.0000
vn -1.0000 0.0000 -0.0000
vn 0.0000 -0.0727 0.9974
vn 0.9974 -0.0727 -0.0000
vn 0.0000 -0.0727 -0.9974
vn -0.9974 -0.0727 -0.0000
vn 0.0000 0.1220 -0.9925
vn -0.9960 0.0889 -0.0000
vn 0.0000 0.1220 0.9925
vn 0.9960 0.0889 -0.0000
# 14 vertex normals

vt 0.2506 0.9998 0.0000
vt 0.2506 0.7500 0.0000
vt 0.3754 0.7500 0.0000
vt 0.3754 0.9998 0.0000
vt 0.1255 0.7500 0.0000
vt 0.2505 0.7500 0.0000
vt 0.2505 0.9998 0.0000
vt 0.1255 0.9998 0.0000
vt 0.3907 0.7189 0.0000
vt 0.2657 0.7189 0.0000
vt 0.2657 0.7500 0.0000
vt 0.3907 0.7500 0.0000
vt 0.1255 0.7189 0.0000
vt 0.0002 0.7189 0.0000
vt 0.0002 0.7500 0.0000
vt 0.5159 0.7189 0.0000
vt 0.5159 0.7500 0.0000
vt 0.2588 0.7189 0.0000
vt 0.1258 0.7189 0.0000
vt 0.1258 0.7500 0.0000
vt 0.2588 0.7500 0.0000
vt -0.3555 0.4267 0.0000
vt -0.3555 0.2064 0.0000
vt -0.2392 0.2064 0.0000
vt -0.2392 0.4267 0.0000
vt 0.1095 0.5001 0.0000
vt 0.2196 0.5001 0.0000
vt 0.2196 0.7189 0.0000
vt 0.1095 0.7189 0.0000
vt 0.1249 0.5001 0.0000
vt 0.0001 0.5001 0.0000
vt 0.0001 0.4846 0.0000
vt 0.1249 0.4846 0.0000
vt 0.3512 0.5001 0.0000
vt 0.2499 0.5001 0.0000
vt 0.2499 0.4846 0.0000
vt 0.3512 0.4846 0.0000
vt 0.4379 0.5001 0.0000
vt 0.3216 0.5001 0.0000
vt 0.3216 0.4846 0.0000
vt 0.4379 0.4846 0.0000
vt 0.2351 0.5416 0.0000
vt 0.3182 0.5416 0.0000
vt 0.3182 0.6990 0.0000
vt 0.2351 0.6990 0.0000
vt 0.3207 0.7660 0.0000
vt 0.3207 0.8907 0.0000
vt 0.2586 0.8907 0.0000
vt 0.2586 0.7660 0.0000
vt 0.0939 0.2963 0.0000
vt 0.0007 0.2963 0.0000
vt 0.0006 0.1418 0.0000
vt 0.0939 0.1418 0.0000
vt 0.9998 0.7504 0.0000
vt 0.8745 0.7504 0.0000
vt 0.8745 0.7193 0.0000
vt 0.9998 0.7193 0.0000
vt 0.2663 0.9679 0.0000
vt 0.3601 0.9679 0.0000
vt 0.3678 0.9842 0.0000
vt 0.2585 0.9842 0.0000
vt 0.3601 0.7807 0.0000
vt 0.3678 0.7650 0.0000
vt 0.2663 0.7807 0.0000
vt 0.2585 0.7650 0.0000
vt 0.2195 0.7816 0.0000
vt 0.1414 0.7816 0.0000
vt 0.2352 0.7500 0.0000
vt 0.1414 0.9381 0.0000
vt 0.1255 0.9692 0.0000
vt 0.2195 0.9381 0.0000
vt 0.2352 0.9692 0.0000
vt 0.3124 0.7021 0.0000
vt 0.2351 0.7021 0.0000
vt 0.2350 0.5313 0.0000
vt 0.3124 0.5313 0.0000
# 76 texture coords

g TrashPillar
usemtl 01___Default
s 2
f 1/1/1 2/2/1 3/3/1 
f 3/3/1 4/4/1 1/1/1 
s 4
f 5/5/2 6/6/2 7/7/2 
f 7/7/2 8/8/2 5/5/2 
s 8
f 1/9/3 4/10/3 6/11/3 
f 6/11/3 5/12/3 1/9/3 
s 16
f 4/13/4 3/14/4 7/15/4 
f 7/15/4 6/5/4 4/13/4 
s 32
f 3/16/5 2/9/5 8/12/5 
f 8/12/5 7/17/5 3/16/5 
s 64
f 2/18/6 1/19/6 5/20/6 
f 5/20/6 8/21/6 2/18/6 
s 2
f 9/22/1 10/23/1 11/24/1 
f 11/24/1 12/25/1 9/22/1 
s 4
f 13/26/2 14/27/2 15/28/2 
f 15/28/2 16/29/2 13/26/2 
s 8
f 9/30/3 12/31/3 14/32/3 
f 14/32/3 13/33/3 9/30/3 
s 16
f 12/34/4 11/35/4 15/36/4 
f 15/36/4 14/37/4 12/34/4 
s 32
f 11/38/5 10/39/5 16/40/5 
f 16/40/5 15/41/5 11/38/5 
s 64
f 10/35/6 9/30/6 13/33/6 
f 13/33/6 16/36/6 10/35/6 
s 2
f 17/42/1 18/43/1 19/44/1 
f 19/44/1 20/45/1 17/42/1 
s 4
f 21/46/2 22/47/2 23/48/2 
f 23/48/2 24/49/2 21/46/2 
s 8
f 17/50/7 20/51/7 25/52/7 
f 25/52/7 26/53/7 17/50/7 
s 16
f 20/50/8 19/51/8 27/52/8 
f 27/52/8 25/53/8 20/50/8 
s 32
f 19/50/9 18/51/9 28/52/9 
f 28/52/9 27/53/9 19/50/9 
s 64
f 18/50/10 17/51/10 26/52/10 
f 26/52/10 28/53/10 18/50/10 
s off
f 29/54/3 30/55/3 31/56/3 
f 31/56/3 32/57/3 29/54/3 
f 30/54/4 33/55/4 34/56/4 
f 34/56/4 31/57/4 30/54/4 
f 33/54/5 35/55/5 36/56/5 
f 36/56/5 34/57/5 33/54/5 
f 35/54/6 29/55/6 32/56/6 
f 32/56/6 36/57/6 35/54/6 
f 26/58/1 25/59/1 30/60/1 
f 30/60/1 29/61/1 26/58/1 
f 25/59/1 27/62/1 33/63/1 
f 33/63/1 30/60/1 25/59/1 
f 27/62/1 28/64/1 35/65/1 
f 35/65/1 33/63/1 27/62/1 
f 28/64/1 26/58/1 29/61/1 
f 29/61/1 35/65/1 28/64/1 
f 37/66/2 38/67/2 32/5/2 
f 32/5/2 31/68/2 37/66/2 
f 38/67/2 39/69/2 36/70/2 
f 36/70/2 32/5/2 38/67/2 
f 39/69/2 40/71/2 34/72/2 
f 34/72/2 36/70/2 39/69/2 
f 40/71/2 37/66/2 31/68/2 
f 31/68/2 34/72/2 40/71/2 
f 38/73/11 37/74/11 22/75/11 
f 22/75/11 21/76/11 38/73/11 
f 37/73/12 40/74/12 23/75/12 
f 23/75/12 22/76/12 37/73/12 
f 40/73/13 39/74/13 24/75/13 
f 24/75/13 23/76/13 40/73/13 
f 39/73/14 38/74/14 21/75/14 
f 21/75/14 24/76/14 39/73/14 
# 68 faces

#
# object DoorsClosed
#

v  -12.3031 36.9291 12.3031
v  -12.3031 36.9291 -12.3031
v  12.3031 36.9291 -12.3031
v  12.3031 36.9291 12.3031
v  -12.3031 39.4095 12.3031
v  12.3031 39.4095 12.3031
v  12.3031 39.4095 -12.3031
v  -12.3031 39.4095 -12.3031
# 8 vertices

vn 0.0000 -1.0000 -0.0000
vn 0.0000 1.0000 -0.0000
vn 0.0000 0.0000 1.0000
vn 1.0000 0.0000 -0.0000
vn 0.0000 0.0000 -1.0000
vn -1.0000 0.0000 -0.0000
# 6 vertex normals

vt 0.2422 0.7499 0.0000
vt 0.2422 0.9986 0.0000
vt 0.1255 0.9986 0.0000
vt 0.1255 0.7499 0.0000
vt 0.2502 0.9063 0.0000
vt 0.1255 0.9063 0.0000
vt 0.1255 0.8753 0.0000
vt 0.2502 0.8753 0.0000
vt 0.2502 0.9379 0.0000
vt 0.1255 0.9379 0.0000
vt 0.1255 0.8438 0.0000
vt 0.2502 0.8438 0.0000
vt 0.1255 0.8128 0.0000
vt 0.2502 0.8128 0.0000
# 14 texture coords

g DoorsClosed
usemtl 01___Default
s 2
f 41/77/15 42/78/15 43/79/15 
f 43/79/15 44/80/15 41/77/15 
s 4
f 45/80/16 46/77/16 47/78/16 
f 47/78/16 48/79/16 45/80/16 
s 8
f 41/81/17 44/82/17 46/83/17 
f 46/83/17 45/84/17 41/81/17 
s 16
f 44/85/18 43/86/18 47/82/18 
f 47/82/18 46/81/18 44/85/18 
s 32
f 43/84/19 42/83/19 48/87/19 
f 48/87/19 47/88/19 43/84/19 
s 64
f 42/88/20 41/87/20 45/89/20 
f 45/89/20 48/90/20 42/88/20 
# 12 faces

#
# object DoorsOpen
#

v  -9.7380 36.9095 12.3031
v  -9.7380 36.9095 -12.3031
v  -9.7380 49.2126 -12.3031
v  -9.7380 49.2126 12.3031
v  -12.2184 36.9095 12.3031
v  -12.2184 49.2126 12.3031
v  -12.2184 49.2126 -12.3031
v  -12.2184 36.9095 -12.3031
v  12.2983 36.9095 12.3031
v  12.2983 36.9095 -12.3031
v  12.2983 49.2126 -12.3031
v  12.2983 49.2126 12.3031
v  9.8179 36.9095 12.3031
v  9.8179 49.2126 12.3031
v  9.8179 49.2126 -12.3031
v  9.8179 36.9095 -12.3031
# 16 vertices

vn 1.0000 0.0000 -0.0000
vn -1.0000 -0.0000 -0.0000
vn 0.0000 0.0000 1.0000
vn -0.0000 1.0000 -0.0000
vn 0.0000 0.0000 -1.0000
vn 0.0000 -1.0000 -0.0000
# 6 vertex normals

vt 0.2497 0.8731 0.0000
vt 0.1261 0.8731 0.0000
vt 0.1261 0.7497 0.0000
vt 0.2497 0.7497 0.0000
vt 0.2435 0.9057 0.0000
vt 0.1654 0.9057 0.0000
vt 0.1654 0.8901 0.0000
vt 0.2435 0.8901 0.0000
vt 0.2501 0.8694 0.0000
vt 0.1235 0.8694 0.0000
vt 0.1235 0.8439 0.0000
vt 0.2501 0.8439 0.0000
vt 0.2501 0.8440 0.0000
vt 0.1235 0.8440 0.0000
vt 0.1235 0.8186 0.0000
vt 0.2501 0.8186 0.0000
vt 0.2498 0.8729 0.0000
vt 0.1262 0.8729 0.0000
vt 0.1262 0.7497 0.0000
vt 0.2498 0.7497 0.0000
vt 0.1654 0.8746 0.0000
vt 0.2435 0.8746 0.0000
# 22 texture coords

g DoorsOpen
usemtl 01___Default
s 2
f 49/91/21 50/92/21 51/93/21 
f 51/93/21 52/94/21 49/91/21 
s 4
f 53/92/22 54/93/22 55/94/22 
f 55/94/22 56/91/22 53/92/22 
s 8
f 49/95/23 52/96/23 54/97/23 
f 54/97/23 53/98/23 49/95/23 
s 16
f 52/99/24 51/100/24 55/101/24 
f 55/101/24 54/102/24 52/99/24 
s 32
f 51/95/25 50/96/25 56/97/25 
f 56/97/25 55/98/25 51/95/25 
s 64
f 50/103/26 49/104/26 53/105/26 
f 53/105/26 56/106/26 50/103/26 
s 2
f 57/107/21 58/108/21 59/109/21 
f 59/109/21 60/110/21 57/107/21 
s 4
f 61/94/22 62/91/22 63/92/22 
f 63/92/22 64/93/22 61/94/22 
s 8
f 57/95/23 60/96/23 62/111/23 
f 62/111/23 61/112/23 57/95/23 
s 16
f 60/99/24 59/100/24 63/101/24 
f 63/101/24 62/102/24 60/99/24 
s 32
f 59/95/25 58/96/25 64/111/25 
f 64/111/25 63/112/25 59/95/25 
s 64
f 58/103/26 57/104/26 61/105/26 
f 61/105/26 64/106/26 58/103/26 
# 24 faces

