# Blender v2.78 (sub 0) OBJ File: ''
# www.blender.org
mtllib untitled.mtl
o s016
v 0.545400 0.252100 0.248232
v 0.551800 -0.003100 0.228832
v 0.696800 0.252100 0.326032
v 0.665200 -0.003100 0.287432
v 0.781900 0.252100 0.178632
v 0.728800 -0.003100 0.176732
v 0.630500 0.252100 0.100932
v 0.615400 -0.003100 0.118132
v 0.655500 0.422300 0.215832
vt 0.5000 0.5000
vt 0.0000 1.0000
vt 1.0000 1.0000
vt 0.0000 1.0000
vt 1.0000 1.0000
vt 0.0000 1.0000
vt 1.0000 1.0000
vt 0.0000 1.0000
vt 1.0000 1.0000
vt 0.0000 0.0000
vt 1.0000 0.0000
vt 0.0000 0.0000
vt 1.0000 0.0000
vt 0.0000 0.0000
vt 1.0000 0.0000
vt 0.0000 0.0000
vt 1.0000 0.0000
vn -0.4144 0.4216 0.8065
vn 0.7640 0.4710 0.4411
vn 0.4028 0.4707 -0.7849
vn -0.7852 0.4216 -0.4536
vn -0.9267 0.2382 0.2905
vn -0.9666 -0.0428 0.2524
vn 0.2987 0.1821 0.9368
vn 0.2423 -0.1749 0.9543
vn 0.9449 0.1955 -0.2626
vn 0.9315 -0.1906 -0.3096
vn -0.2510 0.2417 -0.9373
vn -0.3142 -0.0460 -0.9482
usemtl Material__25
s off
f 9/1/1 1/2/1 3/3/1
f 9/1/2 3/4/2 5/5/2
f 9/1/3 5/6/3 7/7/3
f 9/1/4 7/8/4 1/9/4
s 1
f 1/2/5 2/10/6 3/3/7
f 4/11/8 3/3/7 2/10/6
f 3/4/7 4/12/8 5/5/9
f 6/13/10 5/5/9 4/12/8
f 5/6/9 6/14/10 7/7/11
f 8/15/12 7/7/11 6/14/10
f 7/8/11 8/16/12 1/9/5
f 2/17/6 1/9/5 8/16/12
o s026
v 0.421660 -0.003100 0.562943
v 0.588060 -0.003100 0.625443
v 0.603060 0.283400 0.665943
v 0.381160 0.283400 0.583143
v 0.638160 -0.003100 0.454943
v 0.670460 0.283400 0.438843
v 0.471860 -0.003100 0.392443
v 0.448460 0.283400 0.356043
v 0.523060 0.486800 0.512343
vt 0.0000 1.0000
vt 1.0000 1.0000
vt 0.5000 0.5000
vt 0.0000 1.0000
vt 1.0000 1.0000
vt 0.0000 1.0000
vt 1.0000 1.0000
vt 0.0000 1.0000
vt 1.0000 1.0000
vt 0.0000 0.0000
vt 1.0000 0.0000
vt 0.0000 0.0000
vt 1.0000 0.0000
vt 0.0000 0.0000
vt 1.0000 0.0000
vt 0.0000 0.0000
vt 1.0000 0.0000
vn -0.3037 0.4952 0.8140
vn 0.8250 0.5094 0.2448
vn 0.3007 0.5093 -0.8063
vn -0.8330 0.4952 -0.2468
vn -0.8838 -0.1553 0.4413
vn 0.4483 -0.1490 0.8814
vn 0.4313 0.2339 0.8713
vn -0.8735 0.2164 0.4360
vn 0.8876 -0.1242 -0.4435
vn 0.8691 0.2379 -0.4337
vn -0.4333 -0.1489 -0.8888
vn -0.4363 0.2338 -0.8689
usemtl Material__25
s off
f 13/18/13 12/19/13 18/20/13
f 12/21/14 15/22/14 18/20/14
f 15/23/15 17/24/15 18/20/15
f 17/25/16 13/26/16 18/20/16
s 1
f 10/27/17 11/28/18 12/19/19
f 12/19/19 13/18/20 10/27/17
f 11/29/18 14/30/21 15/22/22
f 15/22/22 12/21/19 11/29/18
f 14/31/21 16/32/23 17/24/24
f 17/24/24 15/23/22 14/31/21
f 16/33/23 10/34/17 13/26/20
f 13/26/20 17/25/24 16/33/23
o s018
v 0.777600 0.242000 0.572831
v 0.774900 -0.003100 0.597231
v 0.651900 0.242000 0.677231
v 0.680500 -0.003100 0.675431
v 0.752000 0.242000 0.806431
v 0.755800 -0.003100 0.772131
v 0.877700 0.242000 0.702031
v 0.850200 -0.003100 0.693931
v 0.764500 0.405400 0.692831
vt 0.5000 0.5000
vt 0.0000 1.0000
vt 1.0000 1.0000
vt 0.0000 1.0000
vt 1.0000 1.0000
vt 0.0000 1.0000
vt 1.0000 1.0000
vt 0.0000 1.0000
vt 1.0000 1.0000
vt 0.0000 0.0000
vt 1.0000 0.0000
vt 0.0000 0.0000
vt 1.0000 0.0000
vt 0.0000 0.0000
vt 1.0000 0.0000
vt 0.0000 0.0000
vt 1.0000 0.0000
vn -0.5683 0.4570 -0.6843
vn -0.7109 0.4373 0.5508
vn 0.5747 0.4371 0.6919
vn 0.7033 0.4566 -0.5449
vn 0.1059 0.2308 -0.9672
vn 0.1076 -0.0993 -0.9892
vn -0.9714 0.2133 -0.1040
vn -0.9864 -0.1149 -0.1176
vn -0.1067 0.2024 0.9734
vn -0.1070 -0.1390 0.9845
vn 0.9709 0.2132 0.1094
vn 0.9885 -0.1149 0.0985
usemtl Material__25
s off
f 27/35/25 19/36/25 21/37/25
f 27/35/26 21/38/26 23/39/26
f 27/35/27 23/40/27 25/41/27
f 27/35/28 25/42/28 19/43/28
s 1
f 19/36/29 20/44/30 21/37/31
f 22/45/32 21/37/31 20/44/30
f 21/38/31 22/46/32 23/39/33
f 24/47/34 23/39/33 22/46/32
f 23/40/33 24/48/34 25/41/35
f 26/49/36 25/41/35 24/48/34
f 25/42/35 26/50/36 19/43/29
f 20/51/30 19/43/29 26/50/36
o s014
v 0.924800 -0.003100 0.354200
v 0.818500 -0.003100 0.321500
v 0.816200 0.160600 0.293600
v 0.958100 0.160600 0.336800
v 0.784300 -0.003100 0.427400
v 0.770300 0.160600 0.434700
v 0.890700 -0.003100 0.460100
v 0.912200 0.160600 0.477900
v 0.870700 0.269700 0.382400
vt 0.0000 1.0000
vt 1.0000 1.0000
vt 0.5000 0.5000
vt 0.0000 1.0000
vt 1.0000 1.0000
vt 0.0000 1.0000
vt 1.0000 1.0000
vt 0.0000 1.0000
vt 1.0000 1.0000
vt 0.0000 0.0000
vt 1.0000 0.0000
vt 0.0000 0.0000
vt 1.0000 0.0000
vt 0.0000 0.0000
vt 1.0000 0.0000
vt 0.0000 0.0000
vt 1.0000 0.0000
vn 0.2461 0.5349 -0.8083
vn -0.7692 0.5879 -0.2502
vn -0.2356 0.5878 0.7739
vn 0.8037 0.5346 0.2614
vn 0.8642 -0.2228 -0.4511
vn -0.4840 -0.1543 -0.8613
vn -0.4376 0.2524 -0.8630
vn 0.8664 0.2124 -0.4519
vn -0.8826 -0.0951 0.4603
vn -0.8471 0.2955 0.4417
vn 0.4274 -0.1540 0.8909
vn 0.4561 0.2526 0.8533
usemtl Material__25
s off
f 31/52/37 30/53/37 36/54/37
f 30/55/38 33/56/38 36/54/38
f 33/57/39 35/58/39 36/54/39
f 35/59/40 31/60/40 36/54/40
s 1
f 28/61/41 29/62/42 30/53/43
f 30/53/43 31/52/44 28/61/41
f 29/63/42 32/64/45 33/56/46
f 33/56/46 30/55/43 29/63/42
f 32/65/45 34/66/47 35/58/48
f 35/58/48 33/57/46 32/65/45
f 34/67/47 28/68/41 31/60/44
f 31/60/44 35/59/48 34/67/47
o s017
v 0.357100 -0.003100 0.155888
v 0.356200 -0.003100 0.272088
v 0.324100 0.167700 0.280888
v 0.325700 0.167700 0.125988
v 0.472100 -0.003100 0.265388
v 0.478700 0.167700 0.271588
v 0.473100 -0.003100 0.149188
v 0.480300 0.167700 0.116688
v 0.393300 0.281600 0.190388
vt 0.0000 1.0000
vt 1.0000 1.0000
vt 0.5000 0.5000
vt 0.0000 1.0000
vt 1.0000 1.0000
vt 0.0000 1.0000
vt 1.0000 1.0000
vt 0.0000 1.0000
vt 1.0000 1.0000
vt 0.0000 0.0000
vt 1.0000 0.0000
vt 0.0000 0.0000
vt 1.0000 0.0000
vt 0.0000 0.0000
vt 1.0000 0.0000
vt 0.0000 0.0000
vt 1.0000 0.0000
vn -0.8577 0.5141 -0.0089
vn 0.0479 0.6034 0.7960
vn 0.7972 0.6036 0.0082
vn -0.0515 0.5145 -0.8559
vn -0.7017 -0.2468 -0.6683
vn -0.6421 -0.1585 0.7500
vn -0.6782 0.2548 0.6892
vn -0.7118 0.1844 -0.6777
vn 0.7228 -0.0535 0.6889
vn 0.6873 0.3157 0.6541
vn 0.7165 -0.1587 -0.6793
vn 0.6543 0.2548 -0.7120
usemtl Material__25
s off
f 40/69/49 39/70/49 45/71/49
f 39/72/50 42/73/50 45/71/50
f 42/74/51 44/75/51 45/71/51
f 44/76/52 40/77/52 45/71/52
s 1
f 37/78/53 38/79/54 39/70/55
f 39/70/55 40/69/56 37/78/53
f 38/80/54 41/81/57 42/73/58
f 42/73/58 39/72/55 38/80/54
f 41/82/57 43/83/59 44/75/60
f 44/75/60 42/74/58 41/82/57
f 43/84/59 37/85/53 40/77/56
f 40/77/56 44/76/60 43/84/59
o s015
v 0.163100 -0.003100 0.696186
v 0.256400 -0.003100 0.748486
v 0.254700 0.154100 0.773586
v 0.130200 0.154100 0.704186
v 0.315200 -0.003100 0.659186
v 0.333400 0.154100 0.654786
v 0.221900 -0.003100 0.606886
v 0.208900 0.154100 0.585386
v 0.227900 0.258900 0.680486
vt 0.0000 1.0000
vt 1.0000 1.0000
vt 0.5000 0.5000
vt 0.0000 1.0000
vt 1.0000 1.0000
vt 0.0000 1.0000
vt 1.0000 1.0000
vt 0.0000 1.0000
vt 1.0000 1.0000
vt 0.0000 0.0000
vt 1.0000 0.0000
vt 0.0000 0.0000
vt 1.0000 0.0000
vt 0.0000 0.0000
vt 1.0000 0.0000
vt 0.0000 0.0000
vt 1.0000 0.0000
vn -0.4080 0.5458 0.7319
vn 0.6817 0.5755 0.4516
vn 0.3981 0.5758 -0.7141
vn -0.6982 0.5463 -0.4626
vn -0.9498 -0.2098 0.2319
vn 0.2550 -0.1507 0.9551
vn 0.2207 0.2501 0.9427
vn -0.9459 0.2287 0.2303
vn 0.9647 -0.1174 -0.2356
vn 0.9315 0.2842 -0.2268
vn -0.2112 -0.1504 -0.9658
vn -0.2364 0.2504 -0.9388
usemtl Material__25
s off
f 49/86/61 48/87/61 54/88/61
f 48/89/62 51/90/62 54/88/62
f 51/91/63 53/92/63 54/88/63
f 53/93/64 49/94/64 54/88/64
s 1
f 46/95/65 47/96/66 48/87/67
f 48/87/67 49/86/68 46/95/65
f 47/97/66 50/98/69 51/90/70
f 51/90/70 48/89/67 47/97/66
f 50/99/69 52/100/71 53/92/72
f 53/92/72 51/91/70 50/99/69
f 52/101/71 46/102/65 49/94/68
f 49/94/68 53/93/72 52/101/71
o s024
v 0.152211 0.251800 0.308600
v 0.172311 -0.003100 0.334300
v 0.126711 0.251800 0.476600
v 0.152811 -0.003100 0.460200
v 0.295911 0.251800 0.492600
v 0.279711 -0.003100 0.471800
v 0.321411 0.251800 0.324500
v 0.299211 -0.003100 0.345900
v 0.223111 0.421600 0.399300
vt 0.5000 0.5000
vt 0.0000 1.0000
vt 1.0000 1.0000
vt 0.0000 1.0000
vt 1.0000 1.0000
vt 0.0000 1.0000
vt 1.0000 1.0000
vt 0.0000 1.0000
vt 1.0000 1.0000
vt 0.0000 0.0000
vt 1.0000 0.0000
vt 0.0000 0.0000
vt 1.0000 0.0000
vt 0.0000 0.0000
vt 1.0000 0.0000
vt 0.0000 0.0000
vt 1.0000 0.0000
vn -0.8868 0.4422 -0.1346
vn -0.0840 0.4520 0.8881
vn 0.8821 0.4517 0.1338
vn 0.0839 0.4420 -0.8931
vn -0.6030 0.2036 -0.7714
vn -0.6110 -0.1261 -0.7815
vn -0.7706 0.2180 0.5988
vn -0.7790 -0.1203 0.6153
vn 0.6005 0.2199 0.7687
vn 0.6128 -0.1020 0.7836
vn 0.7679 0.2179 -0.6023
vn 0.7866 -0.1201 -0.6056
usemtl Material__25
s off
f 63/103/73 55/104/73 57/105/73
f 63/103/74 57/106/74 59/107/74
f 63/103/75 59/108/75 61/109/75
f 63/103/76 61/110/76 55/111/76
s 1
f 55/104/77 56/112/78 57/105/79
f 58/113/80 57/105/79 56/112/78
f 57/106/79 58/114/80 59/107/81
f 60/115/82 59/107/81 58/114/80
f 59/108/81 60/116/82 61/109/83
f 62/117/84 61/109/83 60/116/82
f 61/110/83 62/118/84 55/111/77
f 56/119/78 55/111/77 62/118/84
o s019
v 0.461500 0.227700 0.884700
v 0.481100 -0.003100 0.866300
v 0.615200 0.227700 0.892900
v 0.596400 -0.003100 0.872700
v 0.616800 0.227700 0.739000
v 0.597300 -0.003100 0.757300
v 0.463100 0.227700 0.730800
v 0.482100 -0.003100 0.750900
v 0.537200 0.381600 0.813700
vt 0.5000 0.5000
vt 0.0000 1.0000
vt 1.0000 1.0000
vt 0.0000 1.0000
vt 1.0000 1.0000
vt 0.0000 1.0000
vt 1.0000 1.0000
vt 0.0000 1.0000
vt 1.0000 1.0000
vt 0.0000 0.0000
vt 1.0000 0.0000
vt 0.0000 0.0000
vt 1.0000 0.0000
vt 0.0000 0.0000
vt 1.0000 0.0000
vt 0.0000 0.0000
vt 1.0000 0.0000
vn -0.0479 0.4378 0.8978
vn 0.8900 0.4558 0.0093
vn 0.0474 0.4559 -0.8888
vn -0.8990 0.4379 -0.0093
vn -0.7133 0.2076 0.6694
vn -0.7243 -0.1151 0.6798
vn 0.6690 0.2172 0.7107
vn 0.6793 -0.1195 0.7241
vn 0.7117 0.2172 -0.6680
vn 0.7240 -0.1144 -0.6802
vn -0.6665 0.2172 -0.7132
vn -0.6787 -0.1195 -0.7246
usemtl Material__25
s off
f 72/120/85 64/121/85 66/122/85
f 72/120/86 66/123/86 68/124/86
f 72/120/87 68/125/87 70/126/87
f 72/120/88 70/127/88 64/128/88
s 1
f 64/121/89 65/129/90 66/122/91
f 67/130/92 66/122/91 65/129/90
f 66/123/91 67/131/92 68/124/93
f 69/132/94 68/124/93 67/131/92
f 68/125/93 69/133/94 70/126/95
f 71/134/96 70/126/95 69/133/94
f 70/127/95 71/135/96 64/128/89
f 65/136/90 64/128/89 71/135/96
